<svg xmlns="http://www.w3.org/2000/svg" xmlns:xlink="http://www.w3.org/1999/xlink" width="336" height="44.893" viewBox="0 0 336 44.893">
  <defs>
    <clipPath id="clip-path">
      <rect id="Rectangle_22338" data-name="Rectangle 22338" width="336" height="44.893" fill="none"/>
    </clipPath>
  </defs>
  <g id="Lucky_Fish_Logo" transform="translate(0 0)">
    <g id="Group_43891" data-name="Group 43891" transform="translate(0 0)">
      <g id="Group_43890" data-name="Group 43890" clip-path="url(#clip-path)">
        <path id="Path_92851" data-name="Path 92851" d="M162.207,27.845a3.744,3.744,0,1,1-3.745-3.745,3.744,3.744,0,0,1,3.745,3.745" transform="translate(-43.218 -6.732)" fill="#fff"/>
        <path id="Path_92852" data-name="Path 92852" d="M359.234,30.282H372c0,1.923,2.28,3.474,5.082,3.474,2.41,0,4.493-1.118,4.493-2.547,0-4.777-21.694-2.855-21.694-17.374,0-8.314,7.3-13.835,16.808-13.835,9.641,0,17,5.771,17,13.462H380.928c0-1.675-1.889-2.917-4.364-2.917-2.085,0-3.909.869-3.909,2.359,0,4.963,21.694,1.985,21.694,16.938,0,8.75-7.623,14.457-17.394,14.457-10.162,0-17.72-6.141-17.72-14.022" transform="translate(-100.345 0)" fill="#fff"/>
      </g>
    </g>
    <path id="Path_92853" data-name="Path 92853" d="M229.568,30.577,213.015,1.851h14.137l8.794,16.193,8.735-16.193h13.875L242.012,30.577V44.656H229.57Z" transform="translate(-59.502 -0.517)" fill="#fff"/>
    <path id="Path_92854" data-name="Path 92854" d="M181.957,1.85V18.141L170.034,1.851H156.548l16.436,22.367L156.548,44.66h13.479l11.93-14.89V44.66H194.4V1.85Z" transform="translate(-43.729 -0.517)" fill="#f05376"/>
    <g id="Group_43893" data-name="Group 43893" transform="translate(0 0)">
      <g id="Group_43892" data-name="Group 43892" clip-path="url(#clip-path)">
        <path id="Path_92855" data-name="Path 92855" d="M40.98,27.91V1.852H53.422V27.723A6.258,6.258,0,0,0,59.662,34c.114,0,.228,0,.341-.008a6.256,6.256,0,0,0,6.57-5.926c.006-.113.009-.227.008-.341V1.852H79.025V27.913c0,9.99-8.209,17.5-19.022,17.5S40.981,37.9,40.981,27.913" transform="translate(-11.447 -0.517)" fill="#fff"/>
        <rect id="Rectangle_22339" data-name="Rectangle 22339" width="12.442" height="42.811" transform="translate(242.776 0.749)" fill="#fff"/>
        <path id="Path_92856" data-name="Path 92856" d="M451.133,1.039H438.689v15.7H424.618V1.039H412.174V43.85h12.444V27.9h.043v-.377h10.221l3.807-6.76v.058h0V43.848h12.444V27.526h0Z" transform="translate(-115.133 -0.29)" fill="#fff"/>
        <path id="Path_92857" data-name="Path 92857" d="M27.044,33.494h-14.6V1.852H0V44.661H20.753Z" transform="translate(0 -0.517)" fill="#fff"/>
        <path id="Path_92858" data-name="Path 92858" d="M302.593,12.213h12.339l6.291-11.167H290.151v42.8h12.442V28.4h7.938l6.291-11.169H302.593Z" transform="translate(-81.048 -0.292)" fill="#fff"/>
        <path id="Path_92859" data-name="Path 92859" d="M127.689,27.964c-1.358-.858-2.028-1.736-2.856-.617a17.515,17.515,0,0,1-6.21,6.6,18.438,18.438,0,0,1-8.4,1.748l7.13-12.429h.016l-.008-.014.008-.014h-.016l-7.13-12.427a18.429,18.429,0,0,1,8.4,1.748,17.5,17.5,0,0,1,6.21,6.6c.828,1.118,1.5.241,2.856-.618,4.363-2.757,13.629-8.642,13.33-8.687a25.937,25.937,0,0,0-19.11-8.008c-13.428,0-24.328,9.426-24.51,21.122h-.006v.217c0,.017,0,.033,0,.05h0v.028h0c0,.017,0,.034,0,.051v.213H97.4c.179,11.7,11.08,21.126,24.51,21.126a25.939,25.939,0,0,0,19.11-8.006c.3-.045-8.967-5.93-13.33-8.687" transform="translate(-27.204 -0.516)" fill="#f05376"/>
      </g>
    </g>
  </g>
</svg>
